<svg xmlns="http://www.w3.org/2000/svg" version="1.1" xmlns:xlink="http://www.w3.org/1999/xlink" xmlns:svgjs="http://svgjs.dev/svgjs" width="2000" height="282" viewBox="0 0 2000 282"><g transform="matrix(1,0,0,1,-1.2121212121212466,-0.2803357817294909)"><svg viewBox="0 0 396 56" data-background-color="#444444" preserveAspectRatio="xMidYMid meet" height="282" width="2000" xmlns="http://www.w3.org/2000/svg" xmlns:xlink="http://www.w3.org/1999/xlink"><g id="tight-bounds" transform="matrix(1,0,0,1,0.2400000000000091,0.05566951693919009)"><svg viewBox="0 0 395.52 55.88866096612164" height="55.88866096612164" width="395.52"><g><svg viewBox="0 0 473.9275933784784 66.9679879369431" height="55.88866096612164" width="395.52"><g transform="matrix(1,0,0,1,0,9.25534420836189)"><svg viewBox="0 0 395.52 48.45729952021932" height="48.45729952021932" width="395.52"><g id="textblocktransform"><svg viewBox="0 0 395.52 48.45729952021932" height="48.45729952021932" width="395.52" id="textblock"><g><svg viewBox="0 0 395.52 48.45729952021932" height="48.45729952021932" width="395.52"><g transform="matrix(1,0,0,1,0,0)"><svg width="395.52" viewBox="-0.550000011920929 -35.75 291.7799987792969 35.75" height="48.45729952021932" data-palette-color="#ffffff"><path d="M28.3-2.15L35.3-2.15 35.3 0-0.55 0-0.55-2.15 4.3-2.15 4.3-34.95 17.9-34.95Q21.45-34.95 24.03-34.1 26.6-33.25 27.9-31.8L27.9-31.8Q30.25-29.1 30.25-25.7L30.25-25.7Q30.25-21.6 27.6-19.6L27.6-19.6Q26.7-18.9 26.35-18.73 26-18.55 25.1-18.15L25.1-18.15Q28.35-17.45 30.28-15.23 32.2-13 32.2-9.7L32.2-9.7Q32.2-4.75 28.3-2.15L28.3-2.15ZM12.1-14.65L12.1-6.6 17.45-6.6Q20.8-6.6 22.48-7.43 24.15-8.25 24.15-10.68 24.15-13.1 22.38-13.88 20.6-14.65 16.7-14.65L16.7-14.65 12.1-14.65ZM12.1-28.35L12.1-20.8 15.8-20.8Q19.05-20.8 20.63-21.5 22.2-22.2 22.2-24.53 22.2-26.85 20.75-27.6 19.3-28.35 15.85-28.35L15.85-28.35 12.1-28.35ZM34.75-2.15L39.6-2.15 39.6-34.95 52.85-34.95Q61-34.95 64.47-32.2 67.95-29.45 67.95-23.35L67.95-23.35Q67.95-14.95 61.3-12.5L61.3-12.5 68.6-2.15 73.3-2.15 73.3 0 60.55 0 52.8-11.15 47.4-11.15 47.4 0 34.75 0 34.75-2.15ZM53.1-17.9Q57.1-17.9 58.55-19.2 60-20.5 60-23.33 60-26.15 58.5-27.2 57-28.25 53.25-28.25L53.25-28.25 47.4-28.25 47.4-17.9 53.1-17.9ZM101.45-2.15L112.6-2.15 112.6 0 71.3 0 71.3-2.15 82.45-2.15Q78.35-4.5 75.97-8.6 73.6-12.7 73.6-17.7L73.6-17.7Q73.6-25.4 78.9-30.58 84.2-35.75 91.95-35.75 99.7-35.75 105-30.58 110.3-25.4 110.3-17.7L110.3-17.7Q110.3-12.7 107.9-8.6 105.5-4.5 101.45-2.15L101.45-2.15ZM102.35-17.68Q102.35-22.35 99.35-25.65 96.35-28.95 91.97-28.95 87.6-28.95 84.6-25.65 81.6-22.35 81.6-17.68 81.6-13 84.6-9.73 87.6-6.45 91.97-6.45 96.35-6.45 99.35-9.73 102.35-13 102.35-17.68ZM142.39-2.15L149.39-2.15 149.39 0 112.59 0 112.59-2.15 123.34-2.15Q119.34-4.5 117.07-8.53 114.79-12.55 114.79-17.65L114.79-17.65Q114.79-25.35 120.12-30.55 125.44-35.75 133.14-35.75L133.14-35.75Q141.74-35.75 147.54-29.2L147.54-29.2 142.69-23.7Q138.99-28.3 133.49-28.3L133.49-28.3Q129.09-28.3 125.97-25.43 122.84-22.55 122.84-17.68 122.84-12.8 125.79-9.85 128.74-6.9 132.94-6.9L132.94-6.9Q138.69-6.9 142.34-11.45L142.34-11.45 147.34-6.3Q145.14-3.75 142.39-2.15L142.39-2.15ZM184.34-34.95L170.44-19.5 182.79-2.15 186.94-2.15 186.94 0 175.24 0 164.99-13.8 161.49-9.9 161.49 0 149.39 0 149.39-2.15 153.69-2.15 153.69-34.95 161.49-34.95 161.49-20.6 174.69-34.95 184.34-34.95ZM212.19-2.15L223.99-2.15 223.99 0 184.34 0 184.34-2.15 189.19-2.15 189.19-34.95 201.54-34.95Q210.89-34.95 215.89-30.38 220.89-25.8 220.89-17.5L220.89-17.5Q220.89-6.3 212.19-2.15L212.19-2.15ZM201.94-6.9Q207.29-6.9 210.16-9.6 213.04-12.3 213.04-17.45 213.04-22.6 210.16-25.38 207.29-28.15 201.34-28.15L201.34-28.15 196.99-28.15 196.99-6.9 201.94-6.9ZM223.44-2.15L228.29-2.15 228.29-34.95 253.49-34.95 253.49-28 236.09-28 236.09-20.8 251.74-20.8 251.74-14.15 236.09-14.15 236.09-6.9 254.04-6.9 254.04-2.15 258.89-2.15 258.89 0 223.44 0 223.44-2.15ZM278.03-2.15L291.08-2.15 291.08 0 256.68 0 256.68-2.15 269.68-2.15 256.53-34.95 264.98-34.95 273.88-12.7 282.78-34.95 291.23-34.95 278.03-2.15Z" opacity="1" transform="matrix(1,0,0,1,0,0)" fill="#ffffff" class="wordmark-text-0" data-fill-palette-color="primary" id="text-0"></path></svg></g></svg></g></svg></g></svg></g><g transform="matrix(1,0,0,1,406.9596054415353,0)"><svg viewBox="0 0 66.9679879369431 66.9679879369431" height="66.9679879369431" width="66.9679879369431"><g data-palette-color="#1e5cc3"><rect width="18.304583369431114" height="66.9679879369431" fill="#1e5cc3" stroke="transparent" data-fill-palette-color="accent" x="0" fill-opacity="1"></rect><rect width="18.304583369431114" height="66.9679879369431" fill="#1e5cc3" stroke="transparent" data-fill-palette-color="accent" x="22.3226626456477" fill-opacity="0.75"></rect><rect width="18.304583369431114" height="66.9679879369431" fill="#1e5cc3" stroke="transparent" data-fill-palette-color="accent" x="44.6453252912954" fill-opacity="0.5"></rect></g></svg></g></svg></g><defs></defs></svg><rect width="395.52" height="55.88866096612164" fill="none" stroke="none" visibility="hidden"></rect></g></svg></g></svg>